HIERARCHY
ROOT SpineBase
{
  OFFSET 0.000000 0.000000 0.000000
  CHANNELS 6 Xposition Yposition Zposition Zrotation Xrotation Yrotation
  JOINT SpineMid
  {
    OFFSET 0.000000 27.087283 0.000000
    CHANNELS 3 Zrotation Xrotation Yrotation
    JOINT SpineShoulder
    {
      OFFSET -0.077414 20.082706 -0.740575
      CHANNELS 3 Zrotation Xrotation Yrotation
      JOINT Neck
      {
        OFFSET -0.043352 6.626411 -0.547056
        CHANNELS 3 Zrotation Xrotation Yrotation
        JOINT Head
        {
          OFFSET -2.831493 12.863117 -1.038524
          CHANNELS 3 Zrotation Xrotation Yrotation
          End Site
          {
            OFFSET 0 0 0
          }
        }
      }
      JOINT ShoulderLeft
      {
        OFFSET -12.309177 -4.390182 7.975537
        CHANNELS 3 Zrotation Xrotation Yrotation
        JOINT ElbowLeft
        {
          OFFSET -2.452375 -17.782279 -10.638008
          CHANNELS 3 Zrotation Xrotation Yrotation
          JOINT WristLeft
          {
            OFFSET 6.081188 -8.235130 -12.930098
            CHANNELS 3 Zrotation Xrotation Yrotation
            JOINT HandLeft
            {
              OFFSET -3.958745 5.428988 -7.403122
              CHANNELS 3 Zrotation Xrotation Yrotation
              JOINT HandTipLeft
              {
                OFFSET -0.662980 0.116994 -1.959290
                CHANNELS 3 Zrotation Xrotation Yrotation
                End Site
                {
                  OFFSET 0 0 0
                }
              }
              JOINT ThumbLeft
              {
                OFFSET 0.976367 0.504083 -1.947646
                CHANNELS 3 Zrotation Xrotation Yrotation
                End Site
                {
                  OFFSET 0 0 0
                }
              }
            }
          }
        }
      }
      JOINT ShoulderRight
      {
        OFFSET 8.345302 -4.531091 -11.964489
        CHANNELS 3 Zrotation Xrotation Yrotation
        JOINT ElbowRight
        {
          OFFSET 3.406381 -17.730723 -5.470804
          CHANNELS 3 Zrotation Xrotation Yrotation
          JOINT WristRight
          {
            OFFSET -20.200516 -0.815864 -2.567473
            CHANNELS 3 Zrotation Xrotation Yrotation
            JOINT HandRight
            {
              OFFSET -2.463336 0.584702 -1.417954
              CHANNELS 3 Zrotation Xrotation Yrotation
              JOINT HandTipRight
              {
                OFFSET -3.131393 2.715521 0.063162
                CHANNELS 3 Zrotation Xrotation Yrotation
                End Site
                {
                  OFFSET 0 0 0
                }
              }
              JOINT ThumbRight
              {
                OFFSET -0.675391 -1.113536 -1.578941
                CHANNELS 3 Zrotation Xrotation Yrotation
                End Site
                {
                  OFFSET 0 0 0
                }
              }
            }
          }
        }
      }
    }
  }
  JOINT HipLeft
  {
    OFFSET -4.582495 -0.123159 1.223972
    CHANNELS 3 Zrotation Xrotation Yrotation
    JOINT KneeLeft
    {
      OFFSET 3.038284 -26.283546 6.393521
      CHANNELS 3 Zrotation Xrotation Yrotation
      JOINT AnkleLeft
      {
        OFFSET 14.192511 -36.300608 8.776909
        CHANNELS 3 Zrotation Xrotation Yrotation
        JOINT FootLeft
        {
          OFFSET 3.166674 -6.279726 -5.501063
          CHANNELS 3 Zrotation Xrotation Yrotation
          End Site
          {
            OFFSET 0 0 0
          }
        }
      }
    }
  }
  JOINT HipRight
  {
    OFFSET 4.051778 1.053873 -7.611741
    CHANNELS 3 Zrotation Xrotation Yrotation
    JOINT KneeRight
    {
      OFFSET 8.920891 -31.674023 7.516474
      CHANNELS 3 Zrotation Xrotation Yrotation
      JOINT AnkleRight
      {
        OFFSET 4.838088 -29.058042 10.594825
        CHANNELS 3 Zrotation Xrotation Yrotation
        JOINT FootRight
        {
          OFFSET -5.146726 -4.048002 -7.598041
          CHANNELS 3 Zrotation Xrotation Yrotation
          End Site
          {
            OFFSET 0 0 0
          }
        }
      }
    }
  }
}
MOTION
Frames: 13
Frame Time: 0.033333
29.650007 71.015124 353.798585 -0.000000 0.000000 45.660627 0.000000 0.000000 -45.660627 -0.000000 0.000000 0.000000 -0.000000 0.000000 0.000000 0.000000 0.000000 0.000000 -0.000000 0.000000 0.000000 -0.000000 0.000000 0.000000 -0.000000 0.000000 0.000000 -0.000000 0.000000 0.000000 0.000000 0.000000 0.000000 0.000000 0.000000 0.000000 -0.000000 0.000000 0.000000 -0.000000 0.000000 0.000000 -0.000000 0.000000 0.000000 -0.000000 0.000000 0.000000 0.000000 0.000000 0.000000 0.000000 0.000000 0.000000 0.000000 0.000000 -45.660627 -0.000000 0.000000 0.000000 -0.000000 0.000000 0.000000 0.000000 0.000000 0.000000 0.000000 0.000000 -45.660627 -0.000000 0.000000 0.000000 -0.000000 0.000000 0.000000 0.000000 0.000000 0.000000
29.644675 71.013055 353.598755 -0.052763 0.175102 45.566999 -0.088097 -0.160261 -45.567041 -0.000000 0.000000 0.000000 -0.000000 0.000000 0.000000 0.000000 0.000000 0.000000 0.742441 -0.556881 -0.365139 -2.148911 2.265345 3.812269 0.706061 -0.699280 -3.500783 0.209769 0.155343 -0.336699 0.000000 0.000000 0.000000 0.000000 0.000000 0.000000 -0.000000 0.000000 0.000000 -0.000000 0.000000 0.000000 -2.804214 2.341170 3.681077 24.692774 3.399396 2.753479 0.000000 0.000000 0.000000 0.000000 0.000000 0.000000 -0.088097 -0.160261 -45.567041 -0.000000 0.000000 0.000000 -8.253964 -5.866799 4.197754 0.000000 0.000000 0.000000 -0.088097 -0.160261 -45.567041 -0.000000 0.000000 0.000000 -1.496099 3.004120 -0.912742 0.000000 0.000000 0.000000
29.638241 71.000093 353.429645 -0.097309 0.325529 45.485927 -0.163907 -0.297612 -45.486077 -0.000000 0.000000 0.000000 -0.000000 0.000000 0.000000 0.000000 0.000000 0.000000 1.243359 -0.895270 -0.614452 -3.854447 3.884004 6.849740 1.453373 -1.043718 -5.872500 0.241467 0.102029 -0.293863 0.000000 0.000000 0.000000 0.000000 0.000000 0.000000 -0.000000 0.000000 0.000000 -0.484414 0.123492 -1.383131 -4.009908 3.472929 7.950685 38.936177 5.567766 4.384616 0.000000 0.000000 0.000000 0.000000 0.000000 0.000000 0.104163 -1.477929 -45.305462 -1.027634 0.639534 -0.170725 -15.250533 -11.499461 7.187045 0.000000 0.000000 0.000000 -1.233998 -1.009682 -45.910475 0.274265 2.307494 0.600325 -2.422920 3.825499 -1.676427 0.000000 0.000000 0.000000
29.630707 70.976239 353.291255 -0.133651 0.451326 45.417660 -0.227641 -0.411992 -45.417952 -0.000000 0.000000 0.000000 -0.000000 0.000000 0.000000 0.000000 0.000000 0.000000 1.506414 -1.013167 -0.753534 -5.056279 4.917233 9.081835 2.258817 -1.062431 -7.110954 0.080247 -0.193455 0.076000 0.000000 0.000000 0.000000 0.000000 0.000000 0.000000 -0.000000 0.000000 0.000000 -0.815389 0.192558 -1.862165 -4.374027 4.043537 10.653380 46.635909 7.168264 5.337564 0.000000 0.000000 0.000000 0.000000 0.000000 0.000000 0.107639 -1.967844 -45.183564 -1.340097 0.858667 -0.217383 -20.644064 -16.176017 9.047415 0.000000 0.000000 0.000000 -1.658215 -1.335562 -45.990015 0.441551 3.040725 0.815347 -2.935025 4.457226 -2.049897 0.000000 0.000000 0.000000
29.622071 70.941492 353.183586 -0.161802 0.552531 45.362398 -0.279480 -0.503351 -45.362845 -0.000000 0.000000 0.000000 -0.000000 0.000000 0.000000 0.000000 0.000000 0.000000 1.533559 -0.909574 -0.785034 -5.719899 5.419564 10.503168 3.127399 -0.772890 -7.233958 -0.294502 -0.738578 0.668003 0.000000 0.000000 0.000000 0.000000 0.000000 0.000000 -0.984126 -0.132751 0.277572 -0.219819 0.399865 -2.476891 -3.908149 4.190484 12.683514 50.563988 8.749078 5.883891 0.000000 0.000000 0.000000 0.000000 0.000000 0.000000 0.080018 -2.304944 -45.098486 -1.530042 1.016910 -0.241970 -24.400046 -19.570513 10.062964 0.000000 0.000000 0.000000 -1.962779 -1.548261 -46.039322 0.634844 3.485437 0.973657 -3.108894 4.449751 -2.189536 0.000000 0.000000 0.000000
29.612334 70.895854 353.106636 -0.181771 0.629178 45.320297 -0.319571 -0.571648 -45.320893 -0.000000 0.000000 0.000000 0.001478 0.865012 0.190638 0.000000 0.000000 0.000000 1.324875 -0.584224 -0.708579 -5.829989 5.429341 11.123413 4.051760 -0.175550 -6.270852 -0.908251 -1.512955 1.338679 0.000000 0.000000 0.000000 0.000000 0.000000 0.000000 -1.437059 0.376097 0.521123 -0.219483 -0.031029 -2.918806 -2.773483 4.052821 14.157256 52.124222 10.618135 6.191892 0.000000 0.000000 0.000000 0.000000 0.000000 0.000000 0.021423 -2.494731 -45.050177 -1.602136 1.117102 -0.245971 -26.609873 -21.635891 10.510124 0.000000 0.000000 0.000000 -2.151007 -1.649434 -46.058088 0.854645 3.639706 1.075565 -2.956325 3.825916 -2.098206 0.000000 0.000000 0.000000
29.591824 70.846860 353.071555 -0.194842 0.676805 45.234808 0.144119 0.046103 -45.234601 0.127046 0.065085 0.008240 -0.130548 0.205903 0.221487 0.000000 0.000000 0.000000 1.115617 -1.254217 -0.602961 -5.710615 4.585141 10.785988 5.532035 1.250336 -3.622943 -1.853901 -2.828677 6.102303 0.000000 0.000000 0.000000 0.000000 0.000000 0.000000 -1.897850 0.142455 0.763449 -0.317162 -0.576315 -3.413994 -0.349973 3.425531 15.330467 52.647645 16.386320 7.443583 0.000000 0.000000 0.000000 0.000000 0.000000 0.000000 0.048127 -2.675631 -44.938184 -1.732910 1.181936 -0.268199 -23.881788 -19.556343 9.533400 0.000000 0.000000 0.000000 -2.286922 -1.735650 -46.019797 0.983340 3.797332 1.149556 -2.722683 3.254999 -2.107257 0.000000 0.000000 0.000000
29.559836 70.780621 353.079671 -0.212345 0.697672 45.197426 0.171185 0.082951 -45.197718 0.137531 0.112293 0.008641 -0.330037 0.245405 0.237068 0.000000 0.000000 0.000000 0.012920 -0.989876 -0.005294 -3.850045 3.647553 8.630313 5.955047 4.118261 0.706312 -3.030007 -4.528273 6.846072 0.000000 0.000000 0.000000 0.000000 0.000000 0.000000 -2.389095 0.878740 1.091626 -0.505594 -1.332765 -3.543219 0.340052 3.126642 13.798694 48.394970 23.746801 11.646672 0.000000 0.000000 0.000000 0.000000 0.000000 0.000000 -0.186974 -2.736838 -44.963392 -1.592535 1.369862 -0.210966 -23.505348 -22.219280 6.708034 0.000000 0.000000 0.000000 -2.067906 -1.464798 -45.885204 1.335751 2.910207 1.068214 -0.746856 -1.087470 -0.459375 0.000000 0.000000 0.000000
29.544281 70.727701 353.093906 -0.222410 0.688091 45.165615 0.202390 0.121680 -45.166296 0.144780 0.163137 0.009099 -0.499535 0.212084 0.233881 0.000000 0.000000 0.000000 -0.551753 0.355261 0.134879 -2.624090 2.846658 7.783113 5.575255 4.442927 2.504842 -2.552237 -7.685806 11.302131 0.000000 0.000000 0.000000 0.000000 0.000000 0.000000 -3.268078 2.159634 1.658616 -0.243230 -2.658441 -3.612701 2.529787 2.736809 14.711077 44.158238 25.676876 11.867893 0.000000 0.000000 0.000000 0.000000 0.000000 0.000000 -0.213657 -2.660944 -44.950251 -1.509199 1.345056 -0.194782 -23.577437 -21.599864 7.363191 0.000000 0.000000 0.000000 -1.936482 -1.305273 -45.801600 1.459270 2.411729 1.002574 0.099257 -2.486994 -0.004114 0.000000 0.000000 0.000000
29.566481 70.633822 353.097148 -0.186111 0.686284 45.331447 0.210821 0.158642 -45.331893 0.140002 0.198089 0.009701 -0.623173 0.051369 0.200208 0.000000 0.000000 0.000000 -1.982880 2.000461 0.753353 -0.486658 2.441890 6.894049 5.101372 3.651762 3.752301 -2.704202 -9.249578 10.303266 0.000000 0.000000 0.000000 0.000000 0.000000 0.000000 -4.108904 3.859244 2.310341 -0.236547 -4.322629 -4.217313 4.282755 2.225890 14.509863 42.759891 25.850290 11.336326 0.000000 0.000000 0.000000 0.000000 0.000000 0.000000 -0.167899 -2.624897 -45.095563 -1.557649 1.284671 -0.213869 -24.327430 -14.020615 14.589160 0.000000 0.000000 0.000000 -1.709428 -0.842383 -45.852304 1.972706 1.402430 0.948392 2.894477 -8.164643 2.577327 0.000000 0.000000 0.000000
29.585702 70.514195 353.092505 -0.153239 0.684171 45.670083 0.208692 0.190913 -45.670664 0.131510 0.217184 0.009441 -0.779019 -0.104881 0.158516 0.000000 0.000000 0.000000 -3.690160 3.971049 1.541173 1.967904 2.030926 6.136655 3.033907 5.306195 4.585101 -2.154261 -12.034708 8.806945 0.000000 0.000000 0.000000 0.000000 0.000000 0.000000 -5.341745 5.794474 3.174655 -0.047417 -6.188190 -4.995450 7.236193 1.376413 14.760911 39.244739 22.331983 8.041889 0.000000 0.000000 0.000000 0.000000 0.000000 0.000000 0.664708 -3.736793 -45.077090 -3.792995 1.682237 -0.617373 -25.754788 -11.150204 19.413288 0.000000 0.000000 0.000000 -1.562833 -0.544937 -46.115411 2.297217 0.637463 0.901861 5.229301 -12.364799 4.982325 0.000000 0.000000 0.000000
29.650452 70.364386 353.078833 -0.088979 0.679494 46.285308 0.194204 0.217038 -46.285435 0.114073 0.219160 0.009327 -0.839916 -0.341731 0.099915 0.000000 0.000000 0.000000 -5.488572 5.972020 2.414257 4.683741 -0.634653 3.755039 0.647692 4.030028 2.636687 0.138802 -10.631700 12.135123 0.000000 0.000000 0.000000 0.000000 0.000000 0.000000 -6.551713 7.406802 3.978728 -0.080870 -7.634313 -6.076666 8.410148 1.678248 17.022968 35.190817 10.275872 0.622286 0.000000 0.000000 0.000000 0.000000 0.000000 0.000000 1.049155 -4.542782 -45.470631 -5.248272 2.569784 -0.656279 -27.911445 -10.412800 22.865803 0.000000 0.000000 0.000000 -1.730861 -0.556088 -46.778044 2.466088 0.890281 1.009896 4.103965 -11.066557 4.502804 0.000000 0.000000 0.000000
29.740574 70.200607 353.061580 -0.008276 0.665734 47.066301 0.175434 0.235544 -47.065478 0.087535 0.206802 0.009038 -0.834267 -0.749653 0.001899 0.000000 0.000000 0.000000 -7.175637 7.759541 3.277100 6.800319 0.183175 4.280557 -0.347571 -1.477251 -0.932221 -0.029971 -6.361387 8.685281 0.000000 0.000000 0.000000 0.000000 0.000000 0.000000 -7.435103 9.066712 4.692806 -0.588492 -9.096619 -6.581911 8.515796 2.075803 17.425746 23.083145 -7.268335 -12.370884 0.000000 0.000000 0.000000 0.000000 0.000000 0.000000 1.118173 -5.065145 -46.140810 -6.093168 3.520135 -0.522444 -30.424935 -11.369917 25.156347 0.000000 0.000000 0.000000 -1.538898 -0.250788 -47.460149 2.654555 0.370699 0.966945 6.176797 -14.879470 7.036919 0.000000 0.000000 0.000000
